<?xml version="1.0" encoding="iso-8859-1"?>
<!-- Generator: Adobe Illustrator 18.1.1, SVG Export Plug-In . SVG Version: 6.00 Build 0)  -->
<svg version="1.1" id="Capa_1" xmlns="http://www.w3.org/2000/svg" xmlns:xlink="http://www.w3.org/1999/xlink" x="0px" y="0px"
	 viewBox="0 0 51.377 45.377" style="enable-background:new 0 0 51.377 45.377;" xml:space="preserve">
<g>
	<g>
		<path style="fill:#1B7023;" d="M51.309,24.619c-0.291-0.76-1.438-1.024-2.56-0.592l-7.893,3.24
			c-2.472-0.561-5.57-1.002-9.062-1.275l-1.385,1.691c2.937,0.151,5.57,0.393,7.718,0.705l-12.226,5.02
			c-0.789,0.013-1.587,0.021-2.401,0.021c-11.361,0-20.571-1.324-20.571-2.96c0-1.635,9.21-2.96,20.571-2.96
			c0.785,0,1.557,0.008,2.319,0.02l1.34-1.791c-1.192-0.039-2.414-0.059-3.659-0.059c-12.979,0-23.5,2.184-23.5,4.875
			c0,2.692,10.521,13.91,23.5,13.91S47,33.246,47,30.554c0-0.718-0.755-1.398-2.097-2.012l4.902-1.767
			C50.928,26.343,51.601,25.377,51.309,24.619z M32.105,33.153l10.493-3.781c0.942,0.339,1.474,0.709,1.474,1.096
			C44.071,31.659,39.163,32.685,32.105,33.153z"/>
		<path style="fill:#1B7023;" d="M25.329,29.855c-0.693,0.887-1.241,1.615-0.643,2.084c0.132,0.103,0.262,0.148,0.393,0.148
			c0.465,0,0.934-0.582,1.475-1.273l2.611-3.189l1.408-1.721L43.938,9.576c0.693-0.886,0.771-1.984,0.172-2.452
			c-0.184-0.143-0.408-0.211-0.651-0.211c-0.554,0-1.207,0.351-1.688,0.966L28.375,25.784l-1.325,1.771L25.329,29.855z"/>
	</g>
</g>
<g>
</g>
<g>
</g>
<g>
</g>
<g>
</g>
<g>
</g>
<g>
</g>
<g>
</g>
<g>
</g>
<g>
</g>
<g>
</g>
<g>
</g>
<g>
</g>
<g>
</g>
<g>
</g>
<g>
</g>
</svg>
