<svg width="963" height="264" viewBox="0 0 963 264" fill="none" xmlns="http://www.w3.org/2000/svg">
<path d="M120.854 155.761C107.939 155.761 98.7423 152.386 93.2632 145.635C87.8819 138.786 85.1913 128.953 85.1913 116.136V73.2811C85.1913 60.1704 87.8819 50.2885 93.2632 43.6353C98.6445 36.8842 107.842 33.5087 120.854 33.5087C133.28 33.5087 142.086 36.4929 147.271 42.4612C152.457 48.4295 155.05 56.8927 155.05 67.8509V78.1242H129.367V66.2365C129.367 61.638 128.877 58.1157 127.899 55.6697C126.921 53.2237 124.572 52.0007 120.854 52.0007C117.136 52.0007 114.69 53.3215 113.516 55.9632C112.342 58.5071 111.755 62.0783 111.755 66.6768V122.593C111.755 127.289 112.342 130.91 113.516 133.453C114.788 135.899 117.234 137.122 120.854 137.122C124.475 137.122 126.774 135.899 127.752 133.453C128.828 130.91 129.367 127.289 129.367 122.593V110.118H155.05V120.392C155.05 131.545 152.457 140.253 147.271 146.515C142.086 152.679 133.28 155.761 120.854 155.761ZM181.243 35.1231H207.514V136.242H234.811V154H181.243V35.1231ZM274.783 35.1231H304.723L326.884 154H302.668L298.705 128.904H281.241L277.131 154H252.329L274.783 35.1231ZM296.21 113.2L289.9 66.8236L283.589 113.2H296.21ZM350.627 35.1231H383.355C396.368 35.1231 406.201 37.4224 412.854 42.0209C419.507 46.6194 422.834 54.7891 422.834 66.5301C422.834 74.4552 421.806 80.766 419.752 85.4623C417.697 90.1587 413.881 93.8277 408.304 96.4694L424.595 154H397.444L384.382 100.726H376.897V154H350.627V35.1231ZM384.235 85.6091C389.519 85.6091 393.188 84.2393 395.242 81.4998C397.395 78.6624 398.471 74.4552 398.471 68.8783C398.471 63.497 397.493 59.4855 395.536 56.8438C393.579 54.1043 390.204 52.7345 385.409 52.7345H376.897V85.6091H384.235ZM450.367 35.1231H476.638V83.7012L496.597 35.1231H522.281L500.266 88.8378L523.308 154H496.597L479.426 101.459L476.638 106.156V154H450.367V35.1231ZM545.378 35.1231H571.649V136.242H598.946V154H545.378V35.1231ZM638.918 35.1231H668.858L691.019 154H666.803L662.84 128.904H645.376L641.266 154H616.464L638.918 35.1231ZM660.345 113.2L654.035 66.8236L647.724 113.2H660.345ZM714.762 35.1231H741.032V83.7012L760.992 35.1231H786.675L764.661 88.8378L787.702 154H760.992L743.821 101.459L741.032 106.156V154H714.762V35.1231ZM809.773 35.1231H863.194V53.028H836.043V82.5271H856.737V100.726H836.043V136.242H863.488V154H809.773V35.1231Z" fill="#1B7023"/>
<path d="M230.402 243.761C217.487 243.761 208.29 240.386 202.81 233.635C197.429 226.786 194.739 216.953 194.739 204.136V161.281C194.739 148.17 197.429 138.288 202.81 131.635C208.192 124.884 217.389 121.509 230.402 121.509C242.827 121.509 251.633 124.493 256.819 130.461C262.004 136.429 264.597 144.893 264.597 155.851V166.124H238.914V154.237C238.914 149.638 238.425 146.116 237.446 143.67C236.468 141.224 234.12 140.001 230.402 140.001C226.684 140.001 224.238 141.322 223.064 143.963C221.889 146.507 221.302 150.078 221.302 154.677V210.593C221.302 215.289 221.889 218.91 223.064 221.453C224.335 223.899 226.782 225.122 230.402 225.122C234.022 225.122 236.321 223.899 237.299 221.453C238.376 218.91 238.914 215.289 238.914 210.593V198.118H264.597V208.392C264.597 219.545 262.004 228.253 256.819 234.515C251.633 240.679 242.827 243.761 230.402 243.761ZM324.839 243.761C312.022 243.761 302.874 240.483 297.395 233.928C291.916 227.275 289.176 217.491 289.176 204.576V160.401C289.176 147.486 291.916 137.799 297.395 131.342C302.874 124.786 312.022 121.509 324.839 121.509C337.754 121.509 346.951 124.786 352.43 131.342C358.007 137.897 360.796 147.583 360.796 160.401V204.576C360.796 217.491 358.007 227.275 352.43 233.928C346.951 240.483 337.754 243.761 324.839 243.761ZM324.839 225.122C328.557 225.122 331.003 223.899 332.177 221.453C333.351 218.91 333.939 215.485 333.939 211.18V153.943C333.939 149.54 333.351 146.116 332.177 143.67C331.003 141.224 328.557 140.001 324.839 140.001C321.317 140.001 318.969 141.273 317.795 143.816C316.621 146.263 316.034 149.638 316.034 153.943V211.18C316.034 215.485 316.572 218.91 317.648 221.453C318.724 223.899 321.121 225.122 324.839 225.122ZM422.573 243.761C409.756 243.761 400.608 240.483 395.129 233.928C389.65 227.275 386.91 217.491 386.91 204.576V160.401C386.91 147.486 389.65 137.799 395.129 131.342C400.608 124.786 409.756 121.509 422.573 121.509C435.488 121.509 444.685 124.786 450.165 131.342C455.741 137.897 458.53 147.583 458.53 160.401V204.576C458.53 217.491 455.741 227.275 450.165 233.928C444.685 240.483 435.488 243.761 422.573 243.761ZM422.573 225.122C426.291 225.122 428.737 223.899 429.911 221.453C431.086 218.91 431.673 215.485 431.673 211.18V153.943C431.673 149.54 431.086 146.116 429.911 143.67C428.737 141.224 426.291 140.001 422.573 140.001C419.051 140.001 416.703 141.273 415.529 143.816C414.355 146.263 413.768 149.638 413.768 153.943V211.18C413.768 215.485 414.306 218.91 415.382 221.453C416.458 223.899 418.855 225.122 422.573 225.122ZM486.259 123.123H512.529V171.701L532.489 123.123H558.172L536.158 176.838L559.199 242H532.489L515.318 189.459L512.529 194.156V242H486.259V123.123ZM581.27 123.123H612.236C619.966 123.123 626.521 123.955 631.902 125.618C637.382 127.183 641.784 130.265 645.111 134.864C648.438 139.463 650.101 145.92 650.101 154.237C650.101 161.281 648.584 166.76 645.551 170.674C642.518 174.587 638.213 177.082 632.636 178.159C639.485 179.039 644.72 181.926 648.34 186.818C651.96 191.71 653.77 198.363 653.77 206.777C653.77 230.259 641.784 242 617.813 242H581.27V123.123ZM612.677 170.674C618.254 170.674 622.02 169.402 623.977 166.858C626.032 164.314 627.059 160.352 627.059 154.97C627.059 150.274 625.787 146.752 623.244 144.404C620.7 141.957 616.982 140.734 612.09 140.734H607.54V170.674H612.677ZM613.117 223.655C618.694 223.655 622.608 222.285 624.858 219.545C627.206 216.708 628.38 212.305 628.38 206.337C628.38 199.586 627.206 194.841 624.858 192.101C622.608 189.361 618.645 187.992 612.97 187.992H607.54V223.655H613.117ZM713.339 243.761C700.522 243.761 691.374 240.483 685.895 233.928C680.416 227.275 677.676 217.491 677.676 204.576V160.401C677.676 147.486 680.416 137.799 685.895 131.342C691.374 124.786 700.522 121.509 713.339 121.509C726.254 121.509 735.451 124.786 740.93 131.342C746.507 137.897 749.296 147.583 749.296 160.401V204.576C749.296 217.491 746.507 227.275 740.93 233.928C735.451 240.483 726.254 243.761 713.339 243.761ZM713.339 225.122C717.057 225.122 719.503 223.899 720.677 221.453C721.851 218.91 722.438 215.485 722.438 211.18V153.943C722.438 149.54 721.851 146.116 720.677 143.67C719.503 141.224 717.057 140.001 713.339 140.001C709.817 140.001 707.469 141.273 706.295 143.816C705.12 146.263 704.533 149.638 704.533 153.943V211.18C704.533 215.485 705.072 218.91 706.148 221.453C707.224 223.899 709.621 225.122 713.339 225.122ZM811.073 243.761C798.256 243.761 789.108 240.483 783.629 233.928C778.15 227.275 775.41 217.491 775.41 204.576V160.401C775.41 147.486 778.15 137.799 783.629 131.342C789.108 124.786 798.256 121.509 811.073 121.509C823.988 121.509 833.185 124.786 838.664 131.342C844.241 137.897 847.03 147.583 847.03 160.401V204.576C847.03 217.491 844.241 227.275 838.664 233.928C833.185 240.483 823.988 243.761 811.073 243.761ZM811.073 225.122C814.791 225.122 817.237 223.899 818.411 221.453C819.585 218.91 820.172 215.485 820.172 211.18V153.943C820.172 149.54 819.585 146.116 818.411 143.67C817.237 141.224 814.791 140.001 811.073 140.001C807.551 140.001 805.203 141.273 804.029 143.816C802.854 146.263 802.267 149.638 802.267 153.943V211.18C802.267 215.485 802.806 218.91 803.882 221.453C804.958 223.899 807.355 225.122 811.073 225.122ZM874.759 123.123H901.029V171.701L920.988 123.123H946.672L924.657 176.838L947.699 242H920.988L903.817 189.459L901.029 194.156V242H874.759V123.123Z" fill="white"/>
<path d="M202.81 233.635L202.024 234.252L202.029 234.259L202.034 234.265L202.81 233.635ZM202.81 131.635L203.588 132.264L203.592 132.259L202.81 131.635ZM264.597 166.124V167.124H265.597V166.124H264.597ZM238.914 166.124H237.914V167.124H238.914V166.124ZM237.446 143.67L236.518 144.041L236.518 144.041L237.446 143.67ZM223.064 143.963L223.972 144.382L223.974 144.376L223.977 144.369L223.064 143.963ZM223.064 221.453L222.156 221.872L222.165 221.894L222.176 221.915L223.064 221.453ZM237.299 221.453L236.378 221.064L236.375 221.073L236.371 221.082L237.299 221.453ZM238.914 198.118V197.118H237.914V198.118H238.914ZM264.597 198.118H265.597V197.118H264.597V198.118ZM256.819 234.515L257.584 235.159L257.589 235.153L256.819 234.515ZM230.402 242.761C217.638 242.761 208.798 239.426 203.587 233.004L202.034 234.265C207.781 241.346 217.335 244.761 230.402 244.761V242.761ZM203.597 233.017C198.406 226.41 195.739 216.83 195.739 204.136H193.739C193.739 217.075 196.453 227.161 202.024 234.252L203.597 233.017ZM195.739 204.136V161.281H193.739V204.136H195.739ZM195.739 161.281C195.739 148.283 198.41 138.666 203.588 132.264L202.033 131.006C196.449 137.911 193.739 148.057 193.739 161.281H195.739ZM203.592 132.259C208.703 125.847 217.535 122.509 230.402 122.509V120.509C217.242 120.509 207.68 123.922 202.028 131.012L203.592 132.259ZM230.402 122.509C242.702 122.509 251.154 125.466 256.064 131.117L257.574 129.805C252.112 123.519 242.953 120.509 230.402 120.509V122.509ZM256.064 131.117C261.04 136.844 263.597 145.041 263.597 155.851H265.597C265.597 144.745 262.969 136.015 257.574 129.805L256.064 131.117ZM263.597 155.851V166.124H265.597V155.851H263.597ZM264.597 165.124H238.914V167.124H264.597V165.124ZM239.914 166.124V154.237H237.914V166.124H239.914ZM239.914 154.237C239.914 149.591 239.423 145.919 238.375 143.298L236.518 144.041C237.426 146.312 237.914 149.685 237.914 154.237H239.914ZM238.375 143.298C237.182 140.316 234.328 139.001 230.402 139.001V141.001C233.911 141.001 235.754 142.132 236.518 144.041L238.375 143.298ZM230.402 139.001C228.431 139.001 226.713 139.35 225.303 140.111C223.878 140.881 222.823 142.043 222.15 143.557L223.977 144.369C224.478 143.242 225.234 142.422 226.254 141.871C227.29 141.312 228.655 141.001 230.402 141.001V139.001ZM222.156 143.544C220.894 146.277 220.302 150.015 220.302 154.677H222.302C222.302 150.141 222.885 146.737 223.972 144.382L222.156 143.544ZM220.302 154.677V210.593H222.302V154.677H220.302ZM220.302 210.593C220.302 215.349 220.893 219.137 222.156 221.872L223.972 221.034C222.886 218.682 222.302 215.23 222.302 210.593H220.302ZM222.176 221.915C223.675 224.797 226.545 226.122 230.402 226.122V224.122C227.018 224.122 224.996 223.001 223.951 220.992L222.176 221.915ZM230.402 226.122C232.315 226.122 233.971 225.801 235.311 225.088C236.672 224.364 237.652 223.264 238.228 221.825L236.371 221.082C235.968 222.088 235.31 222.823 234.372 223.322C233.412 223.833 232.108 224.122 230.402 224.122V226.122ZM238.22 221.843C239.373 219.119 239.914 215.343 239.914 210.593H237.914C237.914 215.236 237.378 218.7 236.378 221.064L238.22 221.843ZM239.914 210.593V198.118H237.914V210.593H239.914ZM238.914 199.118H264.597V197.118H238.914V199.118ZM263.597 198.118V208.392H265.597V198.118H263.597ZM263.597 208.392C263.597 219.399 261.039 227.852 256.049 233.877L257.589 235.153C262.97 228.655 265.597 219.692 265.597 208.392H263.597ZM256.054 233.871C251.142 239.71 242.693 242.761 230.402 242.761V244.761C242.962 244.761 252.125 241.648 257.584 235.159L256.054 233.871ZM297.395 233.928L296.623 234.564L296.628 234.569L297.395 233.928ZM297.395 131.342L298.157 131.989L298.162 131.983L297.395 131.342ZM352.43 131.342L351.663 131.983L351.669 131.99L352.43 131.342ZM352.43 233.928L351.664 233.286L351.663 233.287L352.43 233.928ZM332.177 221.453L333.079 221.886L333.082 221.879L333.085 221.872L332.177 221.453ZM332.177 143.67L331.276 144.102L331.276 144.102L332.177 143.67ZM317.795 143.816L318.696 144.249L318.7 144.242L318.703 144.236L317.795 143.816ZM317.648 221.453L316.727 221.843L316.73 221.85L316.733 221.856L317.648 221.453ZM324.839 242.761C312.168 242.761 303.372 239.52 298.162 233.287L296.628 234.569C302.376 241.447 311.877 244.761 324.839 244.761V242.761ZM298.167 233.292C292.893 226.889 290.176 217.37 290.176 204.576H288.176C288.176 217.612 290.939 227.661 296.623 234.564L298.167 233.292ZM290.176 204.576V160.401H288.176V204.576H290.176ZM290.176 160.401C290.176 147.603 292.894 138.192 298.157 131.989L296.632 130.695C290.937 137.407 288.176 147.368 288.176 160.401H290.176ZM298.162 131.983C303.372 125.75 312.168 122.509 324.839 122.509V120.509C311.877 120.509 302.376 123.823 296.628 130.7L298.162 131.983ZM324.839 122.509C337.612 122.509 346.454 125.751 351.663 131.983L353.198 130.7C347.448 123.822 337.897 120.509 324.839 120.509V122.509ZM351.669 131.99C357.032 138.294 359.796 147.708 359.796 160.401H361.796C361.796 147.458 358.983 137.5 353.192 130.694L351.669 131.99ZM359.796 160.401V204.576H361.796V160.401H359.796ZM359.796 204.576C359.796 217.367 357.032 226.882 351.664 233.286L353.197 234.571C358.983 227.668 361.796 217.615 361.796 204.576H359.796ZM351.663 233.287C346.454 239.519 337.612 242.761 324.839 242.761V244.761C337.897 244.761 347.448 241.448 353.198 234.569L351.663 233.287ZM324.839 226.122C328.776 226.122 331.677 224.807 333.079 221.886L331.276 221.021C330.33 222.992 328.339 224.122 324.839 224.122V226.122ZM333.085 221.872C334.344 219.146 334.939 215.56 334.939 211.18H332.939C332.939 215.41 332.359 218.673 331.269 221.034L333.085 221.872ZM334.939 211.18V153.943H332.939V211.18H334.939ZM334.939 153.943C334.939 149.473 334.346 145.877 333.079 143.237L331.276 144.102C332.357 146.355 332.939 149.607 332.939 153.943H334.939ZM333.079 143.237C331.677 140.316 328.776 139.001 324.839 139.001V141.001C328.339 141.001 330.33 142.131 331.276 144.102L333.079 143.237ZM324.839 139.001C322.963 139.001 321.32 139.339 319.96 140.075C318.587 140.819 317.56 141.94 316.887 143.397L318.703 144.236C319.204 143.149 319.938 142.362 320.913 141.834C321.901 141.298 323.193 141.001 324.839 141.001V139.001ZM316.893 143.384C315.627 146.021 315.034 149.567 315.034 153.943H317.034C317.034 149.709 317.614 146.504 318.696 144.249L316.893 143.384ZM315.034 153.943V211.18H317.034V153.943H315.034ZM315.034 211.18C315.034 215.552 315.578 219.126 316.727 221.843L318.569 221.064C317.566 218.693 317.034 215.418 317.034 211.18H315.034ZM316.733 221.856C318.031 224.807 320.908 226.122 324.839 226.122V224.122C321.335 224.122 319.417 222.992 318.563 221.051L316.733 221.856ZM395.129 233.928L394.357 234.564L394.362 234.569L395.129 233.928ZM395.129 131.342L395.891 131.989L395.896 131.983L395.129 131.342ZM450.165 131.342L449.397 131.983L449.403 131.99L450.165 131.342ZM450.165 233.928L449.398 233.286L449.397 233.287L450.165 233.928ZM429.911 221.453L430.813 221.886L430.816 221.879L430.819 221.872L429.911 221.453ZM429.911 143.67L429.01 144.102L429.01 144.102L429.911 143.67ZM415.529 143.816L416.43 144.249L416.434 144.242L416.437 144.236L415.529 143.816ZM415.382 221.453L414.461 221.843L414.464 221.85L414.467 221.856L415.382 221.453ZM422.573 242.761C409.902 242.761 401.106 239.52 395.896 233.287L394.362 234.569C400.11 241.447 409.611 244.761 422.573 244.761V242.761ZM395.901 233.292C390.627 226.889 387.91 217.37 387.91 204.576H385.91C385.91 217.612 388.673 227.661 394.357 234.564L395.901 233.292ZM387.91 204.576V160.401H385.91V204.576H387.91ZM387.91 160.401C387.91 147.603 390.628 138.192 395.891 131.989L394.366 130.695C388.671 137.407 385.91 147.368 385.91 160.401H387.91ZM395.896 131.983C401.106 125.75 409.902 122.509 422.573 122.509V120.509C409.611 120.509 400.11 123.823 394.362 130.7L395.896 131.983ZM422.573 122.509C435.346 122.509 444.189 125.751 449.397 131.983L450.932 130.7C445.182 123.822 435.631 120.509 422.573 120.509V122.509ZM449.403 131.99C454.766 138.294 457.53 147.708 457.53 160.401H459.53C459.53 147.458 456.717 137.5 450.926 130.694L449.403 131.99ZM457.53 160.401V204.576H459.53V160.401H457.53ZM457.53 204.576C457.53 217.367 454.766 226.882 449.398 233.286L450.931 234.571C456.717 227.668 459.53 217.615 459.53 204.576H457.53ZM449.397 233.287C444.189 239.519 435.346 242.761 422.573 242.761V244.761C435.631 244.761 445.182 241.448 450.932 234.569L449.397 233.287ZM422.573 226.122C426.51 226.122 429.411 224.807 430.813 221.886L429.01 221.021C428.064 222.992 426.073 224.122 422.573 224.122V226.122ZM430.819 221.872C432.078 219.146 432.673 215.56 432.673 211.18H430.673C430.673 215.41 430.093 218.673 429.003 221.034L430.819 221.872ZM432.673 211.18V153.943H430.673V211.18H432.673ZM432.673 153.943C432.673 149.473 432.08 145.877 430.813 143.237L429.01 144.102C430.091 146.355 430.673 149.607 430.673 153.943H432.673ZM430.813 143.237C429.411 140.316 426.51 139.001 422.573 139.001V141.001C426.073 141.001 428.064 142.131 429.01 144.102L430.813 143.237ZM422.573 139.001C420.697 139.001 419.054 139.339 417.694 140.075C416.321 140.819 415.294 141.94 414.621 143.397L416.437 144.236C416.938 143.149 417.672 142.362 418.647 141.834C419.635 141.298 420.927 141.001 422.573 141.001V139.001ZM414.627 143.384C413.361 146.021 412.768 149.567 412.768 153.943H414.768C414.768 149.709 415.348 146.504 416.43 144.249L414.627 143.384ZM412.768 153.943V211.18H414.768V153.943H412.768ZM412.768 211.18C412.768 215.552 413.312 219.126 414.461 221.843L416.303 221.064C415.3 218.693 414.768 215.418 414.768 211.18H412.768ZM414.467 221.856C415.765 224.807 418.642 226.122 422.573 226.122V224.122C419.069 224.122 417.151 222.992 416.297 221.051L414.467 221.856ZM486.259 123.123V122.123H485.259V123.123H486.259ZM512.529 123.123H513.529V122.123H512.529V123.123ZM512.529 171.701H511.529L513.454 172.081L512.529 171.701ZM532.489 123.123V122.123H531.818L531.564 122.743L532.489 123.123ZM558.172 123.123L559.097 123.502L559.662 122.123H558.172V123.123ZM536.158 176.838L535.232 176.459L535.088 176.812L535.215 177.171L536.158 176.838ZM559.199 242V243H560.614L560.142 241.667L559.199 242ZM532.489 242L531.538 242.311L531.763 243H532.489V242ZM515.318 189.459L516.268 189.149L515.583 187.053L514.458 188.949L515.318 189.459ZM512.529 194.156L511.669 193.645L511.529 193.881V194.156H512.529ZM512.529 242V243H513.529V242H512.529ZM486.259 242H485.259V243H486.259V242ZM486.259 124.123H512.529V122.123H486.259V124.123ZM511.529 123.123V171.701H513.529V123.123H511.529ZM513.454 172.081L533.414 123.503L531.564 122.743L511.604 171.321L513.454 172.081ZM532.489 124.123H558.172V122.123H532.489V124.123ZM557.247 122.744L535.232 176.459L537.083 177.217L559.097 123.502L557.247 122.744ZM535.215 177.171L558.256 242.333L560.142 241.667L537.1 176.504L535.215 177.171ZM559.199 241H532.489V243H559.199V241ZM533.439 241.689L516.268 189.149L514.367 189.77L531.538 242.311L533.439 241.689ZM514.458 188.949L511.669 193.645L513.389 194.666L516.177 189.97L514.458 188.949ZM511.529 194.156V242H513.529V194.156H511.529ZM512.529 241H486.259V243H512.529V241ZM487.259 242V123.123H485.259V242H487.259ZM581.27 123.123V122.123H580.27V123.123H581.27ZM631.902 125.618L631.607 126.573L631.617 126.577L631.628 126.58L631.902 125.618ZM645.111 134.864L645.921 134.278L645.111 134.864ZM645.551 170.674L644.761 170.061L644.761 170.061L645.551 170.674ZM632.636 178.159L632.447 177.177L632.509 179.151L632.636 178.159ZM581.27 242H580.27V243H581.27V242ZM623.977 166.858L623.199 166.23L623.192 166.239L623.185 166.248L623.977 166.858ZM623.244 144.404L622.55 145.124L622.558 145.131L622.565 145.138L623.244 144.404ZM607.54 140.734V139.734H606.54V140.734H607.54ZM607.54 170.674H606.54V171.674H607.54V170.674ZM624.858 219.545L624.087 218.908L624.085 218.911L624.858 219.545ZM624.858 192.101L624.085 192.736L624.092 192.744L624.099 192.752L624.858 192.101ZM607.54 187.992V186.992H606.54V187.992H607.54ZM607.54 223.655H606.54V224.655H607.54V223.655ZM581.27 124.123H612.236V122.123H581.27V124.123ZM612.236 124.123C619.9 124.123 626.35 124.948 631.607 126.573L632.198 124.663C626.693 122.961 620.031 122.123 612.236 122.123V124.123ZM631.628 126.58C636.892 128.084 641.106 131.034 644.301 135.45L645.921 134.278C642.463 129.497 637.871 126.283 632.177 124.657L631.628 126.58ZM644.301 135.45C647.459 139.815 649.101 146.037 649.101 154.237H651.101C651.101 145.803 649.417 139.11 645.921 134.278L644.301 135.45ZM649.101 154.237C649.101 161.151 647.611 166.384 644.761 170.061L646.342 171.286C649.558 167.137 651.101 161.412 651.101 154.237H649.101ZM644.761 170.061C641.898 173.755 637.823 176.139 632.447 177.177L632.826 179.141C638.604 178.026 643.138 175.42 646.342 171.286L644.761 170.061ZM632.509 179.151C639.127 180.001 644.1 182.77 647.536 187.412L649.144 186.223C645.339 181.082 639.843 178.077 632.764 177.167L632.509 179.151ZM647.536 187.412C650.988 192.077 652.77 198.497 652.77 206.777H654.77C654.77 198.229 652.932 191.342 649.144 186.223L647.536 187.412ZM652.77 206.777C652.77 218.359 649.816 226.862 644.081 232.48C638.343 238.101 629.65 241 617.813 241V243C629.948 243 639.233 240.028 645.481 233.909C651.731 227.785 654.77 218.678 654.77 206.777H652.77ZM617.813 241H581.27V243H617.813V241ZM582.27 242V123.123H580.27V242H582.27ZM612.677 171.674C618.342 171.674 622.521 170.392 624.77 167.468L623.185 166.248C621.52 168.412 618.165 169.674 612.677 169.674V171.674ZM624.755 167.486C627.021 164.682 628.059 160.444 628.059 154.97H626.059C626.059 160.259 625.043 163.947 623.199 166.23L624.755 167.486ZM628.059 154.97C628.059 150.098 626.736 146.267 623.922 143.669L622.565 145.138C624.839 147.237 626.059 150.45 626.059 154.97H628.059ZM623.937 143.683C621.145 140.998 617.139 139.734 612.09 139.734V141.734C616.824 141.734 620.255 142.917 622.55 145.124L623.937 143.683ZM612.09 139.734H607.54V141.734H612.09V139.734ZM606.54 140.734V170.674H608.54V140.734H606.54ZM607.54 171.674H612.677V169.674H607.54V171.674ZM613.117 224.655C618.822 224.655 623.103 223.257 625.631 220.18L624.085 218.911C622.112 221.313 618.566 222.655 613.117 222.655V224.655ZM625.628 220.183C628.193 217.085 629.38 212.403 629.38 206.337H627.38C627.38 212.207 626.22 216.332 624.087 218.908L625.628 220.183ZM629.38 206.337C629.38 199.53 628.208 194.473 625.617 191.45L624.099 192.752C626.204 195.208 627.38 199.642 627.38 206.337H629.38ZM625.631 191.466C623.1 188.386 618.766 186.992 612.97 186.992V188.992C618.524 188.992 622.115 190.337 624.085 192.736L625.631 191.466ZM612.97 186.992H607.54V188.992H612.97V186.992ZM606.54 187.992V223.655H608.54V187.992H606.54ZM607.54 224.655H613.117V222.655H607.54V224.655ZM685.895 233.928L685.123 234.564L685.127 234.569L685.895 233.928ZM685.895 131.342L686.657 131.989L686.662 131.983L685.895 131.342ZM740.93 131.342L740.163 131.983L740.169 131.99L740.93 131.342ZM740.93 233.928L740.164 233.286L740.163 233.287L740.93 233.928ZM720.677 221.453L721.579 221.886L721.582 221.879L721.585 221.872L720.677 221.453ZM720.677 143.67L719.776 144.102L719.776 144.102L720.677 143.67ZM706.295 143.816L707.196 144.249L707.199 144.242L707.202 144.236L706.295 143.816ZM706.148 221.453L705.227 221.843L705.23 221.85L705.232 221.856L706.148 221.453ZM713.339 242.761C700.667 242.761 691.872 239.52 686.662 233.287L685.127 234.569C690.876 241.447 700.376 244.761 713.339 244.761V242.761ZM686.667 233.292C681.393 226.889 678.676 217.37 678.676 204.576H676.676C676.676 217.612 679.438 227.661 685.123 234.564L686.667 233.292ZM678.676 204.576V160.401H676.676V204.576H678.676ZM678.676 160.401C678.676 147.603 681.394 138.192 686.657 131.989L685.132 130.695C679.437 137.407 676.676 147.368 676.676 160.401H678.676ZM686.662 131.983C691.872 125.75 700.667 122.509 713.339 122.509V120.509C700.376 120.509 690.876 123.823 685.127 130.7L686.662 131.983ZM713.339 122.509C726.112 122.509 734.954 125.751 740.163 131.983L741.698 130.7C735.948 123.822 726.397 120.509 713.339 120.509V122.509ZM740.169 131.99C745.532 138.294 748.296 147.708 748.296 160.401H750.296C750.296 147.458 747.483 137.5 741.692 130.694L740.169 131.99ZM748.296 160.401V204.576H750.296V160.401H748.296ZM748.296 204.576C748.296 217.367 745.531 226.882 740.164 233.286L741.697 234.571C747.483 227.668 750.296 217.615 750.296 204.576H748.296ZM740.163 233.287C734.954 239.519 726.112 242.761 713.339 242.761V244.761C726.397 244.761 735.948 241.448 741.698 234.569L740.163 233.287ZM713.339 226.122C717.275 226.122 720.177 224.807 721.579 221.886L719.776 221.021C718.829 222.992 716.839 224.122 713.339 224.122V226.122ZM721.585 221.872C722.844 219.146 723.438 215.56 723.438 211.18H721.438C721.438 215.41 720.859 218.673 719.769 221.034L721.585 221.872ZM723.438 211.18V153.943H721.438V211.18H723.438ZM723.438 153.943C723.438 149.473 722.846 145.877 721.579 143.237L719.776 144.102C720.857 146.355 721.438 149.607 721.438 153.943H723.438ZM721.579 143.237C720.177 140.316 717.275 139.001 713.339 139.001V141.001C716.839 141.001 718.829 142.131 719.776 144.102L721.579 143.237ZM713.339 139.001C711.463 139.001 709.82 139.339 708.46 140.075C707.086 140.819 706.059 141.94 705.387 143.397L707.202 144.236C707.704 143.149 708.438 142.362 709.413 141.834C710.401 141.298 711.693 141.001 713.339 141.001V139.001ZM705.393 143.384C704.127 146.021 703.533 149.567 703.533 153.943H705.533C705.533 149.709 706.114 146.504 707.196 144.249L705.393 143.384ZM703.533 153.943V211.18H705.533V153.943H703.533ZM703.533 211.18C703.533 215.552 704.077 219.126 705.227 221.843L707.069 221.064C706.066 218.693 705.533 215.418 705.533 211.18H703.533ZM705.232 221.856C706.531 224.807 709.407 226.122 713.339 226.122V224.122C709.835 224.122 707.917 222.992 707.063 221.051L705.232 221.856ZM783.629 233.928L782.857 234.564L782.861 234.569L783.629 233.928ZM783.629 131.342L784.391 131.989L784.396 131.983L783.629 131.342ZM838.664 131.342L837.897 131.983L837.903 131.99L838.664 131.342ZM838.664 233.928L837.898 233.286L837.897 233.287L838.664 233.928ZM818.411 221.453L819.313 221.886L819.316 221.879L819.319 221.872L818.411 221.453ZM818.411 143.67L817.51 144.102L817.51 144.102L818.411 143.67ZM804.029 143.816L804.93 144.249L804.933 144.242L804.937 144.236L804.029 143.816ZM803.882 221.453L802.961 221.843L802.964 221.85L802.967 221.856L803.882 221.453ZM811.073 242.761C798.401 242.761 789.606 239.52 784.396 233.287L782.861 234.569C788.61 241.447 798.11 244.761 811.073 244.761V242.761ZM784.401 233.292C779.127 226.889 776.41 217.37 776.41 204.576H774.41C774.41 217.612 777.172 227.661 782.857 234.564L784.401 233.292ZM776.41 204.576V160.401H774.41V204.576H776.41ZM776.41 160.401C776.41 147.603 779.128 138.192 784.391 131.989L782.866 130.695C777.171 137.407 774.41 147.368 774.41 160.401H776.41ZM784.396 131.983C789.606 125.75 798.401 122.509 811.073 122.509V120.509C798.11 120.509 788.61 123.823 782.861 130.7L784.396 131.983ZM811.073 122.509C823.846 122.509 832.688 125.751 837.897 131.983L839.432 130.7C833.682 123.822 824.131 120.509 811.073 120.509V122.509ZM837.903 131.99C843.266 138.294 846.03 147.708 846.03 160.401H848.03C848.03 147.458 845.217 137.5 839.426 130.694L837.903 131.99ZM846.03 160.401V204.576H848.03V160.401H846.03ZM846.03 204.576C846.03 217.367 843.266 226.882 837.898 233.286L839.431 234.571C845.217 227.668 848.03 217.615 848.03 204.576H846.03ZM837.897 233.287C832.688 239.519 823.846 242.761 811.073 242.761V244.761C824.131 244.761 833.682 241.448 839.432 234.569L837.897 233.287ZM811.073 226.122C815.01 226.122 817.911 224.807 819.313 221.886L817.51 221.021C816.564 222.992 814.573 224.122 811.073 224.122V226.122ZM819.319 221.872C820.578 219.146 821.172 215.56 821.172 211.18H819.172C819.172 215.41 818.593 218.673 817.503 221.034L819.319 221.872ZM821.172 211.18V153.943H819.172V211.18H821.172ZM821.172 153.943C821.172 149.473 820.58 145.877 819.313 143.237L817.51 144.102C818.591 146.355 819.172 149.607 819.172 153.943H821.172ZM819.313 143.237C817.911 140.316 815.01 139.001 811.073 139.001V141.001C814.573 141.001 816.564 142.131 817.51 144.102L819.313 143.237ZM811.073 139.001C809.197 139.001 807.554 139.339 806.194 140.075C804.82 140.819 803.793 141.94 803.121 143.397L804.937 144.236C805.438 143.149 806.172 142.362 807.147 141.834C808.135 141.298 809.427 141.001 811.073 141.001V139.001ZM803.127 143.384C801.861 146.021 801.267 149.567 801.267 153.943H803.267C803.267 149.709 803.848 146.504 804.93 144.249L803.127 143.384ZM801.267 153.943V211.18H803.267V153.943H801.267ZM801.267 211.18C801.267 215.552 801.812 219.126 802.961 221.843L804.803 221.064C803.8 218.693 803.267 215.418 803.267 211.18H801.267ZM802.967 221.856C804.265 224.807 807.141 226.122 811.073 226.122V224.122C807.569 224.122 805.651 222.992 804.797 221.051L802.967 221.856ZM874.759 123.123V122.123H873.759V123.123H874.759ZM901.029 123.123H902.029V122.123H901.029V123.123ZM901.029 171.701H900.029L901.954 172.081L901.029 171.701ZM920.988 123.123V122.123H920.318L920.063 122.743L920.988 123.123ZM946.672 123.123L947.597 123.502L948.162 122.123H946.672V123.123ZM924.657 176.838L923.732 176.459L923.588 176.812L923.715 177.171L924.657 176.838ZM947.699 242V243H949.113L948.642 241.667L947.699 242ZM920.988 242L920.038 242.311L920.263 243H920.988V242ZM903.817 189.459L904.768 189.149L904.083 187.053L902.957 188.949L903.817 189.459ZM901.029 194.156L900.169 193.645L900.029 193.881V194.156H901.029ZM901.029 242V243H902.029V242H901.029ZM874.759 242H873.759V243H874.759V242ZM874.759 124.123H901.029V122.123H874.759V124.123ZM900.029 123.123V171.701H902.029V123.123H900.029ZM901.954 172.081L921.913 123.503L920.063 122.743L900.104 171.321L901.954 172.081ZM920.988 124.123H946.672V122.123H920.988V124.123ZM945.746 122.744L923.732 176.459L925.583 177.217L947.597 123.502L945.746 122.744ZM923.715 177.171L946.756 242.333L948.642 241.667L925.6 176.504L923.715 177.171ZM947.699 241H920.988V243H947.699V241ZM921.939 241.689L904.768 189.149L902.867 189.77L920.038 242.311L921.939 241.689ZM902.957 188.949L900.169 193.645L901.889 194.666L904.677 189.97L902.957 188.949ZM900.029 194.156V242H902.029V194.156H900.029ZM901.029 241H874.759V243H901.029V241ZM875.759 242V123.123H873.759V242H875.759Z" fill="#1B7023"/>
<g clip-path="url(#clip0)">
<path d="M0.249288 161.265C1.31623 158.478 5.52166 157.51 9.63544 159.094L38.5749 170.974C47.6384 168.917 58.9971 167.3 71.8004 166.299L76.8785 172.499C66.11 173.052 56.4562 173.94 48.5807 175.084L93.4069 193.489C96.2997 193.537 99.2256 193.566 102.21 193.566C143.865 193.566 177.633 188.712 177.633 182.714C177.633 176.719 143.865 171.861 102.21 171.861C99.3319 171.861 96.5014 171.89 93.7075 171.934L88.7945 165.368C93.1649 165.225 97.6453 165.151 102.21 165.151C149.797 165.151 188.372 173.159 188.372 183.025C188.372 192.895 149.797 234.026 102.21 234.026C54.623 234.026 16.0481 192.895 16.0481 183.025C16.0481 180.393 18.8163 177.9 23.7367 175.648L5.76365 169.17C1.6462 167.586 -0.821321 164.044 0.249288 161.265ZM70.6601 192.554L32.1879 178.692C28.7341 179.934 26.7835 181.291 26.7835 182.71C26.7872 187.077 44.7822 190.839 70.6601 192.554Z" fill="#1B7023"/>
<path d="M95.5042 180.462C98.0451 183.715 100.054 186.384 97.8618 188.103C97.3778 188.481 96.9012 188.646 96.4209 188.646C94.7159 188.646 92.9964 186.512 91.0128 183.979L81.4397 172.286L76.2773 165.976L27.2749 106.11C24.7341 102.862 24.4481 98.8358 26.6443 97.1199C27.3189 96.5956 28.1402 96.3463 29.0312 96.3463C31.0624 96.3463 33.4566 97.6332 35.2202 99.8881L84.3362 165.536L89.1942 172.03L95.5042 180.462Z" fill="#1B7023"/>
</g>
<defs>
<clipPath id="clip0">
<rect width="188.372" height="166.373" fill="white" transform="matrix(-1 0 0 1 188.372 71)"/>
</clipPath>
</defs>
</svg>
