<svg width="885" height="227" viewBox="0 0 885 227" fill="none" xmlns="http://www.w3.org/2000/svg">
<path d="M42.8544 143.761C29.9394 143.761 20.7423 140.386 15.2632 133.635C9.88195 126.786 7.19132 116.953 7.19132 104.136V61.2811C7.19132 48.1704 9.88195 38.2885 15.2632 31.6353C20.6445 24.8842 29.8415 21.5087 42.8544 21.5087C55.2802 21.5087 64.0859 24.4929 69.2715 30.4612C74.4571 36.4295 77.0499 44.8927 77.0499 55.8509V66.1242H51.3666V54.2365C51.3666 49.638 50.8774 46.1157 49.8989 43.6697C48.9205 41.2237 46.5724 40.0007 42.8544 40.0007C39.1364 40.0007 36.6904 41.3215 35.5163 43.9632C34.3422 46.5071 33.7552 50.0783 33.7552 54.6768V110.593C33.7552 115.289 34.3422 118.91 35.5163 121.453C36.7882 123.899 39.2343 125.122 42.8544 125.122C46.4745 125.122 48.7738 123.899 49.7522 121.453C50.8284 118.91 51.3666 115.289 51.3666 110.593V98.1183H77.0499V108.392C77.0499 119.545 74.4571 128.253 69.2715 134.515C64.0859 140.679 55.2802 143.761 42.8544 143.761ZM103.243 23.1231H129.514V124.242H156.811V142H103.243V23.1231ZM196.783 23.1231H226.723L248.884 142H224.668L220.705 116.904H203.241L199.131 142H174.329L196.783 23.1231ZM218.21 101.2L211.9 54.8236L205.589 101.2H218.21ZM272.627 23.1231H305.355C318.368 23.1231 328.201 25.4224 334.854 30.0209C341.507 34.6194 344.834 42.7891 344.834 54.5301C344.834 62.4552 343.806 68.766 341.752 73.4623C339.697 78.1587 335.881 81.8277 330.304 84.4694L346.595 142H319.444L306.382 88.7255H298.897V142H272.627V23.1231ZM306.235 73.6091C311.519 73.6091 315.188 72.2393 317.242 69.4998C319.395 66.6624 320.471 62.4552 320.471 56.8783C320.471 51.497 319.493 47.4855 317.536 44.8438C315.579 42.1043 312.204 40.7345 307.409 40.7345H298.897V73.6091H306.235ZM372.367 23.1231H398.638V71.7012L418.597 23.1231H444.281L422.266 76.8378L445.308 142H418.597L401.426 89.4593L398.638 94.1557V142H372.367V23.1231ZM467.378 23.1231H493.649V124.242H520.946V142H467.378V23.1231ZM560.918 23.1231H590.858L613.019 142H588.803L584.84 116.904H567.376L563.266 142H538.464L560.918 23.1231ZM582.345 101.2L576.035 54.8236L569.724 101.2H582.345ZM636.762 23.1231H663.032V71.7012L682.992 23.1231H708.675L686.661 76.8378L709.702 142H682.992L665.821 89.4593L663.032 94.1557V142H636.762V23.1231ZM731.773 23.1231H785.194V41.028H758.043V70.5271H778.737V88.7255H758.043V124.242H785.488V142H731.773V23.1231Z" fill="#1B7023"/>
<path d="M152.402 219.428C139.487 219.428 130.29 216.052 124.81 209.301C119.429 202.452 116.739 192.619 116.739 179.802V136.948C116.739 123.837 119.429 113.955 124.81 107.302C130.192 100.551 139.389 97.1754 152.402 97.1754C164.827 97.1754 173.633 100.16 178.819 106.128C184.004 112.096 186.597 120.559 186.597 131.518V141.791H160.914V129.903C160.914 125.305 160.425 121.782 159.446 119.336C158.468 116.89 156.12 115.667 152.402 115.667C148.684 115.667 146.238 116.988 145.064 119.63C143.889 122.174 143.302 125.745 143.302 130.344V186.26C143.302 190.956 143.889 194.576 145.064 197.12C146.335 199.566 148.782 200.789 152.402 200.789C156.022 200.789 158.321 199.566 159.299 197.12C160.376 194.576 160.914 190.956 160.914 186.26V173.785H186.597V184.058C186.597 195.212 184.004 203.92 178.819 210.182C173.633 216.346 164.827 219.428 152.402 219.428ZM246.839 219.428C234.022 219.428 224.874 216.15 219.395 209.595C213.916 202.942 211.176 193.157 211.176 180.242V136.067C211.176 123.152 213.916 113.466 219.395 107.008C224.874 100.453 234.022 97.1754 246.839 97.1754C259.754 97.1754 268.951 100.453 274.43 107.008C280.007 113.564 282.796 123.25 282.796 136.067V180.242C282.796 193.157 280.007 202.942 274.43 209.595C268.951 216.15 259.754 219.428 246.839 219.428ZM246.839 200.789C250.557 200.789 253.003 199.566 254.177 197.12C255.351 194.576 255.939 191.152 255.939 186.847V129.61C255.939 125.207 255.351 121.782 254.177 119.336C253.003 116.89 250.557 115.667 246.839 115.667C243.317 115.667 240.969 116.939 239.795 119.483C238.621 121.929 238.034 125.305 238.034 129.61V186.847C238.034 191.152 238.572 194.576 239.648 197.12C240.724 199.566 243.121 200.789 246.839 200.789ZM344.573 219.428C331.756 219.428 322.608 216.15 317.129 209.595C311.65 202.942 308.91 193.157 308.91 180.242V136.067C308.91 123.152 311.65 113.466 317.129 107.008C322.608 100.453 331.756 97.1754 344.573 97.1754C357.488 97.1754 366.685 100.453 372.165 107.008C377.741 113.564 380.53 123.25 380.53 136.067V180.242C380.53 193.157 377.741 202.942 372.165 209.595C366.685 216.15 357.488 219.428 344.573 219.428ZM344.573 200.789C348.291 200.789 350.737 199.566 351.911 197.12C353.086 194.576 353.673 191.152 353.673 186.847V129.61C353.673 125.207 353.086 121.782 351.911 119.336C350.737 116.89 348.291 115.667 344.573 115.667C341.051 115.667 338.703 116.939 337.529 119.483C336.355 121.929 335.768 125.305 335.768 129.61V186.847C335.768 191.152 336.306 194.576 337.382 197.12C338.458 199.566 340.855 200.789 344.573 200.789ZM408.259 98.7898H434.529V147.368L454.489 98.7898H480.172L458.158 152.505L481.199 217.667H454.489L437.318 165.126L434.529 169.822V217.667H408.259V98.7898ZM503.27 98.7898H534.236C541.966 98.7898 548.521 99.6214 553.902 101.285C559.382 102.85 563.784 105.932 567.111 110.531C570.438 115.129 572.101 121.587 572.101 129.903C572.101 136.948 570.584 142.427 567.551 146.341C564.518 150.254 560.213 152.749 554.636 153.825C561.485 154.706 566.72 157.592 570.34 162.484C573.96 167.376 575.77 174.03 575.77 182.444C575.77 205.926 563.784 217.667 539.813 217.667H503.27V98.7898ZM534.677 146.341C540.254 146.341 544.02 145.069 545.977 142.525C548.032 139.981 549.059 136.018 549.059 130.637C549.059 125.941 547.787 122.418 545.244 120.07C542.7 117.624 538.982 116.401 534.09 116.401H529.54V146.341H534.677ZM535.117 199.321C540.694 199.321 544.608 197.952 546.858 195.212C549.206 192.375 550.38 187.972 550.38 182.004C550.38 175.253 549.206 170.507 546.858 167.768C544.608 165.028 540.645 163.658 534.97 163.658H529.54V199.321H535.117ZM635.339 219.428C622.522 219.428 613.374 216.15 607.895 209.595C602.416 202.942 599.676 193.157 599.676 180.242V136.067C599.676 123.152 602.416 113.466 607.895 107.008C613.374 100.453 622.522 97.1754 635.339 97.1754C648.254 97.1754 657.451 100.453 662.93 107.008C668.507 113.564 671.296 123.25 671.296 136.067V180.242C671.296 193.157 668.507 202.942 662.93 209.595C657.451 216.15 648.254 219.428 635.339 219.428ZM635.339 200.789C639.057 200.789 641.503 199.566 642.677 197.12C643.851 194.576 644.438 191.152 644.438 186.847V129.61C644.438 125.207 643.851 121.782 642.677 119.336C641.503 116.89 639.057 115.667 635.339 115.667C631.817 115.667 629.469 116.939 628.295 119.483C627.12 121.929 626.533 125.305 626.533 129.61V186.847C626.533 191.152 627.072 194.576 628.148 197.12C629.224 199.566 631.621 200.789 635.339 200.789ZM733.073 219.428C720.256 219.428 711.108 216.15 705.629 209.595C700.15 202.942 697.41 193.157 697.41 180.242V136.067C697.41 123.152 700.15 113.466 705.629 107.008C711.108 100.453 720.256 97.1754 733.073 97.1754C745.988 97.1754 755.185 100.453 760.664 107.008C766.241 113.564 769.03 123.25 769.03 136.067V180.242C769.03 193.157 766.241 202.942 760.664 209.595C755.185 216.15 745.988 219.428 733.073 219.428ZM733.073 200.789C736.791 200.789 739.237 199.566 740.411 197.12C741.585 194.576 742.172 191.152 742.172 186.847V129.61C742.172 125.207 741.585 121.782 740.411 119.336C739.237 116.89 736.791 115.667 733.073 115.667C729.551 115.667 727.203 116.939 726.029 119.483C724.854 121.929 724.267 125.305 724.267 129.61V186.847C724.267 191.152 724.806 194.576 725.882 197.12C726.958 199.566 729.355 200.789 733.073 200.789ZM796.759 98.7898H823.029V147.368L842.988 98.7898H868.672L846.657 152.505L869.699 217.667H842.988L825.817 165.126L823.029 169.822V217.667H796.759V98.7898Z" fill="white"/>
<path d="M124.81 209.301L123.238 210.537L123.248 210.549L123.258 210.562L124.81 209.301ZM124.81 107.302L126.365 108.56L126.37 108.554L126.374 108.549L124.81 107.302ZM186.597 141.791V143.791H188.597V141.791H186.597ZM160.914 141.791H158.914V143.791H160.914V141.791ZM159.446 119.336L157.589 120.079L157.589 120.079L159.446 119.336ZM145.064 119.63L146.879 120.468L146.885 120.455L146.891 120.442L145.064 119.63ZM145.064 197.12L143.248 197.958L143.267 198.001L143.289 198.043L145.064 197.12ZM159.299 197.12L157.457 196.341L157.45 196.359L157.442 196.377L159.299 197.12ZM160.914 173.785V171.785H158.914V173.785H160.914ZM186.597 173.785H188.597V171.785H186.597V173.785ZM178.819 210.182L180.349 211.469L180.354 211.463L180.359 211.457L178.819 210.182ZM152.402 217.428C139.789 217.428 131.307 214.132 126.363 208.041L123.258 210.562C129.272 217.972 139.184 221.428 152.402 221.428V217.428ZM126.383 208.066C121.383 201.701 118.739 192.375 118.739 179.802H114.739C114.739 192.864 117.476 203.203 123.238 210.537L126.383 208.066ZM118.739 179.802V136.948H114.739V179.802H118.739ZM118.739 136.948C118.739 124.063 121.39 114.711 126.365 108.56L123.255 106.044C117.468 113.199 114.739 123.611 114.739 136.948H118.739ZM126.374 108.549C131.215 102.475 139.681 99.1754 152.402 99.1754V95.1754C139.096 95.1754 129.168 98.6263 123.247 106.055L126.374 108.549ZM152.402 99.1754C164.577 99.1754 172.676 102.107 177.309 107.44L180.328 104.816C174.591 98.2123 165.078 95.1754 152.402 95.1754V99.1754ZM177.309 107.44C182.075 112.925 184.597 120.856 184.597 131.518H188.597C188.597 120.263 185.934 111.267 180.328 104.816L177.309 107.44ZM184.597 131.518V141.791H188.597V131.518H184.597ZM186.597 139.791H160.914V143.791H186.597V139.791ZM162.914 141.791V129.903H158.914V141.791H162.914ZM162.914 129.903C162.914 125.211 162.422 121.39 161.303 118.594L157.589 120.079C158.428 122.175 158.914 125.398 158.914 129.903H162.914ZM161.303 118.594C159.895 115.074 156.537 113.667 152.402 113.667V117.667C155.703 117.667 157.04 118.706 157.589 120.079L161.303 118.594ZM152.402 113.667C150.318 113.667 148.425 114.036 146.828 114.898C145.2 115.778 143.995 117.11 143.236 118.818L146.891 120.442C147.306 119.508 147.911 118.859 148.729 118.418C149.578 117.959 150.767 117.667 152.402 117.667V113.667ZM143.248 118.792C141.899 121.714 141.302 125.619 141.302 130.344H145.302C145.302 125.871 145.88 122.633 146.879 120.468L143.248 118.792ZM141.302 130.344V186.26H145.302V130.344H141.302ZM141.302 186.26C141.302 191.075 141.897 195.032 143.248 197.958L146.879 196.282C145.882 194.121 145.302 190.837 145.302 186.26H141.302ZM143.289 198.043C145.015 201.362 148.308 202.789 152.402 202.789V198.789C149.255 198.789 147.656 197.77 146.838 196.197L143.289 198.043ZM152.402 202.789C154.418 202.789 156.251 202.451 157.78 201.638C159.352 200.801 160.494 199.519 161.156 197.863L157.442 196.377C157.127 197.167 156.629 197.719 155.902 198.106C155.132 198.516 154.005 198.789 152.402 198.789V202.789ZM161.141 197.899C162.37 194.994 162.914 191.062 162.914 186.26H158.914C158.914 190.85 158.381 194.158 157.457 196.341L161.141 197.899ZM162.914 186.26V173.785H158.914V186.26H162.914ZM160.914 175.785H186.597V171.785H160.914V175.785ZM184.597 173.785V184.058H188.597V173.785H184.597ZM184.597 184.058C184.597 194.919 182.073 203.117 177.278 208.906L180.359 211.457C185.936 204.723 188.597 195.505 188.597 184.058H184.597ZM177.288 208.894C172.65 214.408 164.559 217.428 152.402 217.428V221.428C165.096 221.428 174.616 218.284 180.349 211.469L177.288 208.894ZM219.395 209.595L217.851 210.866L217.856 210.872L217.86 210.877L219.395 209.595ZM219.395 107.008L220.92 108.302L220.925 108.297L220.929 108.291L219.395 107.008ZM274.43 107.008L272.896 108.291L272.902 108.298L272.907 108.304L274.43 107.008ZM274.43 209.595L272.898 208.31L272.896 208.312L274.43 209.595ZM254.177 197.12L255.98 197.986L255.987 197.972L255.993 197.958L254.177 197.12ZM254.177 119.336L252.374 120.202L252.374 120.202L254.177 119.336ZM239.795 119.483L241.598 120.349L241.604 120.335L241.611 120.321L239.795 119.483ZM239.648 197.12L237.806 197.899L237.812 197.912L237.817 197.926L239.648 197.12ZM246.839 217.428C234.313 217.428 225.87 214.224 220.929 208.312L217.86 210.877C223.878 218.077 233.731 221.428 246.839 221.428V217.428ZM220.939 208.323C215.87 202.169 213.176 192.916 213.176 180.242H209.176C209.176 193.399 211.961 203.714 217.851 210.866L220.939 208.323ZM213.176 180.242V136.067H209.176V180.242H213.176ZM213.176 136.067C213.176 123.388 215.873 114.251 220.92 108.302L217.87 105.714C211.959 112.681 209.176 122.917 209.176 136.067H213.176ZM220.929 108.291C225.87 102.38 234.313 99.1754 246.839 99.1754V95.1754C233.731 95.1754 223.878 98.5265 217.86 105.726L220.929 108.291ZM246.839 99.1754C259.469 99.1754 267.958 102.383 272.896 108.291L275.965 105.726C269.945 98.5234 260.039 95.1754 246.839 95.1754V99.1754ZM272.907 108.304C278.057 114.357 280.796 123.5 280.796 136.067H284.796C284.796 123 281.958 112.77 275.954 105.712L272.907 108.304ZM280.796 136.067V180.242H284.796V136.067H280.796ZM280.796 180.242C280.796 192.909 278.056 202.156 272.898 208.31L275.963 210.88C281.959 203.727 284.796 193.406 284.796 180.242H280.796ZM272.896 208.312C267.958 214.221 259.469 217.428 246.839 217.428V221.428C260.039 221.428 269.945 218.08 275.965 210.877L272.896 208.312ZM246.839 202.789C250.994 202.789 254.35 201.381 255.98 197.986L252.374 196.255C251.656 197.751 250.12 198.789 246.839 198.789V202.789ZM255.993 197.958C257.336 195.049 257.939 191.301 257.939 186.847H253.939C253.939 191.002 253.367 194.104 252.361 196.282L255.993 197.958ZM257.939 186.847V129.61H253.939V186.847H257.939ZM257.939 129.61C257.939 125.072 257.34 121.304 255.98 118.471L252.374 120.202C253.362 122.261 253.939 125.341 253.939 129.61H257.939ZM255.98 118.471C254.35 115.075 250.994 113.667 246.839 113.667V117.667C250.12 117.667 251.656 118.705 252.374 120.202L255.98 118.471ZM246.839 113.667C244.848 113.667 243.029 114.026 241.484 114.863C239.911 115.715 238.737 117.002 237.979 118.645L241.611 120.321C242.026 119.421 242.614 118.8 243.389 118.38C244.192 117.945 245.308 117.667 246.839 117.667V113.667ZM237.992 118.618C236.634 121.446 236.034 125.162 236.034 129.61H240.034C240.034 125.447 240.607 122.412 241.598 120.349L237.992 118.618ZM236.034 129.61V186.847H240.034V129.61H236.034ZM236.034 186.847C236.034 191.286 236.584 195.01 237.806 197.899L241.49 196.341C240.56 194.142 240.034 191.018 240.034 186.847H236.034ZM237.817 197.926C239.338 201.382 242.694 202.789 246.839 202.789V198.789C243.549 198.789 242.11 197.751 241.479 196.315L237.817 197.926ZM317.129 209.595L315.585 210.866L315.59 210.872L315.594 210.877L317.129 209.595ZM317.129 107.008L318.654 108.302L318.659 108.297L318.663 108.291L317.129 107.008ZM372.165 107.008L370.63 108.291L370.636 108.298L370.641 108.304L372.165 107.008ZM372.165 209.595L370.632 208.31L370.63 208.312L372.165 209.595ZM351.911 197.12L353.714 197.986L353.721 197.972L353.727 197.958L351.911 197.12ZM351.911 119.336L350.108 120.202L350.108 120.202L351.911 119.336ZM337.529 119.483L339.332 120.349L339.338 120.335L339.345 120.321L337.529 119.483ZM337.382 197.12L335.54 197.899L335.546 197.912L335.551 197.926L337.382 197.12ZM344.573 217.428C332.047 217.428 323.604 214.224 318.663 208.312L315.594 210.877C321.612 218.077 331.465 221.428 344.573 221.428V217.428ZM318.673 208.323C313.604 202.169 310.91 192.916 310.91 180.242H306.91C306.91 193.399 309.695 203.714 315.585 210.866L318.673 208.323ZM310.91 180.242V136.067H306.91V180.242H310.91ZM310.91 136.067C310.91 123.388 313.607 114.251 318.654 108.302L315.604 105.714C309.693 112.681 306.91 122.917 306.91 136.067H310.91ZM318.663 108.291C323.604 102.38 332.047 99.1754 344.573 99.1754V95.1754C331.465 95.1754 321.612 98.5265 315.594 105.726L318.663 108.291ZM344.573 99.1754C357.203 99.1754 365.692 102.383 370.63 108.291L373.699 105.726C367.679 98.5234 357.773 95.1754 344.573 95.1754V99.1754ZM370.641 108.304C375.791 114.357 378.53 123.5 378.53 136.067H382.53C382.53 123 379.692 112.77 373.688 105.712L370.641 108.304ZM378.53 136.067V180.242H382.53V136.067H378.53ZM378.53 180.242C378.53 192.909 375.79 202.156 370.632 208.31L373.697 210.88C379.693 203.727 382.53 193.406 382.53 180.242H378.53ZM370.63 208.312C365.692 214.221 357.203 217.428 344.573 217.428V221.428C357.773 221.428 367.679 218.08 373.699 210.877L370.63 208.312ZM344.573 202.789C348.728 202.789 352.085 201.381 353.714 197.986L350.108 196.255C349.39 197.751 347.854 198.789 344.573 198.789V202.789ZM353.727 197.958C355.07 195.049 355.673 191.301 355.673 186.847H351.673C351.673 191.002 351.101 194.104 350.096 196.282L353.727 197.958ZM355.673 186.847V129.61H351.673V186.847H355.673ZM355.673 129.61C355.673 125.072 355.074 121.304 353.714 118.471L350.108 120.202C351.097 122.261 351.673 125.341 351.673 129.61H355.673ZM353.714 118.471C352.085 115.075 348.728 113.667 344.573 113.667V117.667C347.854 117.667 349.39 118.705 350.108 120.202L353.714 118.471ZM344.573 113.667C342.582 113.667 340.763 114.026 339.218 114.863C337.645 115.715 336.471 117.002 335.713 118.645L339.345 120.321C339.76 119.421 340.348 118.8 341.123 118.38C341.926 117.945 343.042 117.667 344.573 117.667V113.667ZM335.726 118.618C334.368 121.446 333.768 125.162 333.768 129.61H337.768C337.768 125.447 338.341 122.412 339.332 120.349L335.726 118.618ZM333.768 129.61V186.847H337.768V129.61H333.768ZM333.768 186.847C333.768 191.286 334.318 195.01 335.54 197.899L339.224 196.341C338.294 194.142 337.768 191.018 337.768 186.847H333.768ZM335.551 197.926C337.072 201.382 340.428 202.789 344.573 202.789V198.789C341.283 198.789 339.844 197.751 339.213 196.315L335.551 197.926ZM408.259 98.7898V96.7898H406.259V98.7898H408.259ZM434.529 98.7898H436.529V96.7898H434.529V98.7898ZM434.529 147.368H432.529L436.379 148.128L434.529 147.368ZM454.489 98.7898V96.7898H453.148L452.639 98.0297L454.489 98.7898ZM480.172 98.7898L482.023 99.5482L483.153 96.7898H480.172V98.7898ZM458.158 152.505L456.307 151.746L456.018 152.452L456.272 153.171L458.158 152.505ZM481.199 217.667V219.667H484.028L483.085 217L481.199 217.667ZM454.489 217.667L452.588 218.288L453.038 219.667H454.489V217.667ZM437.318 165.126L439.219 164.505L437.849 160.314L435.598 164.105L437.318 165.126ZM434.529 169.822L432.809 168.801L432.529 169.273V169.822H434.529ZM434.529 217.667V219.667H436.529V217.667H434.529ZM408.259 217.667H406.259V219.667H408.259V217.667ZM408.259 100.79H434.529V96.7898H408.259V100.79ZM432.529 98.7898V147.368H436.529V98.7898H432.529ZM436.379 148.128L456.339 99.5499L452.639 98.0297L432.679 146.608L436.379 148.128ZM454.489 100.79H480.172V96.7898H454.489V100.79ZM478.321 98.0313L456.307 151.746L460.008 153.263L482.023 99.5482L478.321 98.0313ZM456.272 153.171L479.314 218.333L483.085 217L460.043 151.838L456.272 153.171ZM481.199 215.667H454.489V219.667H481.199V215.667ZM456.39 217.045L439.219 164.505L435.416 165.747L452.588 218.288L456.39 217.045ZM435.598 164.105L432.809 168.801L436.249 170.843L439.037 166.147L435.598 164.105ZM432.529 169.822V217.667H436.529V169.822H432.529ZM434.529 215.667H408.259V219.667H434.529V215.667ZM410.259 217.667V98.7898H406.259V217.667H410.259ZM503.27 98.7898V96.7898H501.27V98.7898H503.27ZM553.902 101.285L553.312 103.196L553.332 103.202L553.353 103.208L553.902 101.285ZM567.111 110.531L568.731 109.358L567.111 110.531ZM567.551 146.341L565.97 145.115L565.97 145.115L567.551 146.341ZM554.636 153.825L554.257 151.862L554.381 155.809L554.636 153.825ZM503.27 217.667H501.27V219.667H503.27V217.667ZM545.977 142.525L544.421 141.268L544.407 141.287L544.392 141.305L545.977 142.525ZM545.244 120.07L543.857 121.512L543.872 121.526L543.887 121.54L545.244 120.07ZM529.54 116.401V114.401H527.54V116.401H529.54ZM529.54 146.341H527.54V148.341H529.54V146.341ZM546.858 195.212L545.317 193.937L545.312 193.943L546.858 195.212ZM546.858 167.768L545.312 169.037L545.326 169.053L545.339 169.069L546.858 167.768ZM529.54 163.658V161.658H527.54V163.658H529.54ZM529.54 199.321H527.54V201.321H529.54V199.321ZM503.27 100.79H534.236V96.7898H503.27V100.79ZM534.236 100.79C541.835 100.79 548.178 101.609 553.312 103.196L554.493 99.3739C548.864 97.6341 542.097 96.7898 534.236 96.7898V100.79ZM553.353 103.208C558.403 104.651 562.428 107.469 565.491 111.703L568.731 109.358C565.141 104.395 560.36 101.05 554.452 99.3617L553.353 103.208ZM565.491 111.703C568.48 115.835 570.101 121.821 570.101 129.903H574.101C574.101 121.353 572.396 114.424 568.731 109.358L565.491 111.703ZM570.101 129.903C570.101 136.687 568.638 141.674 565.97 145.115L569.132 147.566C572.531 143.18 574.101 137.209 574.101 129.903H570.101ZM565.97 145.115C563.279 148.589 559.432 150.863 554.257 151.862L555.015 155.789C560.994 154.635 565.758 151.919 569.132 147.566L565.97 145.115ZM554.381 155.809C560.77 156.63 565.481 159.28 568.732 163.674L571.947 161.295C567.958 155.904 562.201 152.781 554.891 151.842L554.381 155.809ZM568.732 163.674C572.016 168.112 573.77 174.297 573.77 182.444H577.77C577.77 173.762 575.904 166.641 571.947 161.295L568.732 163.674ZM573.77 182.444C573.77 193.866 570.858 202.068 565.381 207.432C559.897 212.804 551.501 215.667 539.813 215.667V219.667C552.097 219.667 561.679 216.658 568.18 210.29C574.689 203.913 577.77 194.504 577.77 182.444H573.77ZM539.813 215.667H503.27V219.667H539.813V215.667ZM505.27 217.667V98.7898H501.27V217.667H505.27ZM534.677 148.341C540.431 148.341 545.021 147.048 547.563 143.744L544.392 141.305C543.02 143.089 540.076 144.341 534.677 144.341V148.341ZM547.533 143.781C550.009 140.716 551.059 136.203 551.059 130.637H547.059C547.059 135.834 546.055 139.246 544.421 141.268L547.533 143.781ZM551.059 130.637C551.059 125.589 549.685 121.448 546.6 118.601L543.887 121.54C545.89 123.389 547.059 126.292 547.059 130.637H551.059ZM546.63 118.629C543.589 115.705 539.296 114.401 534.09 114.401V118.401C538.667 118.401 541.81 119.543 543.857 121.512L546.63 118.629ZM534.09 114.401H529.54V118.401H534.09V114.401ZM527.54 116.401V146.341H531.54V116.401H527.54ZM529.54 148.341H534.677V144.341H529.54V148.341ZM535.117 201.321C540.949 201.321 545.599 199.896 548.403 196.482L545.312 193.943C543.616 196.008 540.438 197.321 535.117 197.321V201.321ZM548.399 196.487C551.179 193.128 552.38 188.168 552.38 182.004H548.38C548.38 187.776 547.233 191.622 545.317 193.937L548.399 196.487ZM552.38 182.004C552.38 175.14 551.21 169.773 548.376 166.466L545.339 169.069C547.202 171.242 548.38 175.365 548.38 182.004H552.38ZM548.403 166.498C545.593 163.077 540.887 161.658 534.97 161.658V165.658C540.403 165.658 543.622 166.979 545.312 169.037L548.403 166.498ZM534.97 161.658H529.54V165.658H534.97V161.658ZM527.54 163.658V199.321H531.54V163.658H527.54ZM529.54 201.321H535.117V197.321H529.54V201.321ZM607.895 209.595L606.351 210.866L606.355 210.872L606.36 210.877L607.895 209.595ZM607.895 107.008L609.42 108.302L609.424 108.297L609.429 108.291L607.895 107.008ZM662.93 107.008L661.396 108.291L661.401 108.298L661.407 108.304L662.93 107.008ZM662.93 209.595L661.398 208.31L661.396 208.312L662.93 209.595ZM642.677 197.12L644.48 197.986L644.487 197.972L644.493 197.958L642.677 197.12ZM642.677 119.336L640.874 120.202L640.874 120.202L642.677 119.336ZM628.295 119.483L630.098 120.349L630.104 120.335L630.11 120.321L628.295 119.483ZM628.148 197.12L626.306 197.899L626.311 197.912L626.317 197.926L628.148 197.12ZM635.339 217.428C622.813 217.428 614.37 214.224 609.429 208.312L606.36 210.877C612.377 218.077 622.231 221.428 635.339 221.428V217.428ZM609.439 208.323C604.37 202.169 601.676 192.916 601.676 180.242H597.676C597.676 193.399 600.461 203.714 606.351 210.866L609.439 208.323ZM601.676 180.242V136.067H597.676V180.242H601.676ZM601.676 136.067C601.676 123.388 604.373 114.251 609.42 108.302L606.37 105.714C600.459 112.681 597.676 122.917 597.676 136.067H601.676ZM609.429 108.291C614.37 102.38 622.813 99.1754 635.339 99.1754V95.1754C622.231 95.1754 612.377 98.5265 606.36 105.726L609.429 108.291ZM635.339 99.1754C647.969 99.1754 656.457 102.383 661.396 108.291L664.465 105.726C658.445 98.5234 648.539 95.1754 635.339 95.1754V99.1754ZM661.407 108.304C666.556 114.357 669.296 123.5 669.296 136.067H673.296C673.296 123 670.458 112.77 664.454 105.712L661.407 108.304ZM669.296 136.067V180.242H673.296V136.067H669.296ZM669.296 180.242C669.296 192.909 666.556 202.156 661.398 208.31L664.463 210.88C670.459 203.727 673.296 193.406 673.296 180.242H669.296ZM661.396 208.312C656.457 214.221 647.969 217.428 635.339 217.428V221.428C648.539 221.428 658.445 218.08 664.465 210.877L661.396 208.312ZM635.339 202.789C639.494 202.789 642.85 201.381 644.48 197.986L640.874 196.255C640.156 197.751 638.62 198.789 635.339 198.789V202.789ZM644.493 197.958C645.836 195.049 646.438 191.301 646.438 186.847H642.438C642.438 191.002 641.867 194.104 640.861 196.282L644.493 197.958ZM646.438 186.847V129.61H642.438V186.847H646.438ZM646.438 129.61C646.438 125.072 645.84 121.304 644.48 118.471L640.874 120.202C641.862 122.261 642.438 125.341 642.438 129.61H646.438ZM644.48 118.471C642.85 115.075 639.494 113.667 635.339 113.667V117.667C638.62 117.667 640.156 118.705 640.874 120.202L644.48 118.471ZM635.339 113.667C633.348 113.667 631.529 114.026 629.984 114.863C628.411 115.715 627.237 117.002 626.479 118.645L630.11 120.321C630.526 119.421 631.114 118.8 631.889 118.38C632.692 117.945 633.808 117.667 635.339 117.667V113.667ZM626.491 118.618C625.134 121.446 624.533 125.162 624.533 129.61H628.533C628.533 125.447 629.107 122.412 630.098 120.349L626.491 118.618ZM624.533 129.61V186.847H628.533V129.61H624.533ZM624.533 186.847C624.533 191.286 625.083 195.01 626.306 197.899L629.99 196.341C629.06 194.142 628.533 191.018 628.533 186.847H624.533ZM626.317 197.926C627.838 201.382 631.194 202.789 635.339 202.789V198.789C632.049 198.789 630.61 197.751 629.978 196.315L626.317 197.926ZM705.629 209.595L704.085 210.866L704.089 210.872L704.094 210.877L705.629 209.595ZM705.629 107.008L707.154 108.302L707.159 108.297L707.163 108.291L705.629 107.008ZM760.664 107.008L759.13 108.291L759.135 108.298L759.141 108.304L760.664 107.008ZM760.664 209.595L759.132 208.31L759.13 208.312L760.664 209.595ZM740.411 197.12L742.214 197.986L742.221 197.972L742.227 197.958L740.411 197.12ZM740.411 119.336L738.608 120.202L738.608 120.202L740.411 119.336ZM726.029 119.483L727.832 120.349L727.838 120.335L727.845 120.321L726.029 119.483ZM725.882 197.12L724.04 197.899L724.045 197.912L724.051 197.926L725.882 197.12ZM733.073 217.428C720.547 217.428 712.104 214.224 707.163 208.312L704.094 210.877C710.112 218.077 719.965 221.428 733.073 221.428V217.428ZM707.173 208.323C702.104 202.169 699.41 192.916 699.41 180.242H695.41C695.41 193.399 698.195 203.714 704.085 210.866L707.173 208.323ZM699.41 180.242V136.067H695.41V180.242H699.41ZM699.41 136.067C699.41 123.388 702.107 114.251 707.154 108.302L704.104 105.714C698.193 112.681 695.41 122.917 695.41 136.067H699.41ZM707.163 108.291C712.104 102.38 720.547 99.1754 733.073 99.1754V95.1754C719.965 95.1754 710.112 98.5265 704.094 105.726L707.163 108.291ZM733.073 99.1754C745.703 99.1754 754.191 102.383 759.13 108.291L762.199 105.726C756.179 98.5234 746.273 95.1754 733.073 95.1754V99.1754ZM759.141 108.304C764.291 114.357 767.03 123.5 767.03 136.067H771.03C771.03 123 768.192 112.77 762.188 105.712L759.141 108.304ZM767.03 136.067V180.242H771.03V136.067H767.03ZM767.03 180.242C767.03 192.909 764.29 202.156 759.132 208.31L762.197 210.88C768.193 203.727 771.03 193.406 771.03 180.242H767.03ZM759.13 208.312C754.191 214.221 745.703 217.428 733.073 217.428V221.428C746.273 221.428 756.179 218.08 762.199 210.877L759.13 208.312ZM733.073 202.789C737.228 202.789 740.584 201.381 742.214 197.986L738.608 196.255C737.89 197.751 736.354 198.789 733.073 198.789V202.789ZM742.227 197.958C743.57 195.049 744.172 191.301 744.172 186.847H740.172C740.172 191.002 739.601 194.104 738.595 196.282L742.227 197.958ZM744.172 186.847V129.61H740.172V186.847H744.172ZM744.172 129.61C744.172 125.072 743.574 121.304 742.214 118.471L738.608 120.202C739.596 122.261 740.172 125.341 740.172 129.61H744.172ZM742.214 118.471C740.584 115.075 737.228 113.667 733.073 113.667V117.667C736.354 117.667 737.89 118.705 738.608 120.202L742.214 118.471ZM733.073 113.667C731.082 113.667 729.263 114.026 727.718 114.863C726.145 115.715 724.971 117.002 724.213 118.645L727.845 120.321C728.26 119.421 728.848 118.8 729.623 118.38C730.426 117.945 731.542 117.667 733.073 117.667V113.667ZM724.226 118.618C722.868 121.446 722.267 125.162 722.267 129.61H726.267C726.267 125.447 726.841 122.412 727.832 120.349L724.226 118.618ZM722.267 129.61V186.847H726.267V129.61H722.267ZM722.267 186.847C722.267 191.286 722.818 195.01 724.04 197.899L727.724 196.341C726.794 194.142 726.267 191.018 726.267 186.847H722.267ZM724.051 197.926C725.572 201.382 728.928 202.789 733.073 202.789V198.789C729.783 198.789 728.344 197.751 727.712 196.315L724.051 197.926ZM796.759 98.7898V96.7898H794.759V98.7898H796.759ZM823.029 98.7898H825.029V96.7898H823.029V98.7898ZM823.029 147.368H821.029L824.879 148.128L823.029 147.368ZM842.988 98.7898V96.7898H841.648L841.138 98.0297L842.988 98.7898ZM868.672 98.7898L870.522 99.5482L871.653 96.7898H868.672V98.7898ZM846.657 152.505L844.807 151.746L844.518 152.452L844.772 153.171L846.657 152.505ZM869.699 217.667V219.667H872.528L871.585 217L869.699 217.667ZM842.988 217.667L841.087 218.288L841.538 219.667H842.988V217.667ZM825.817 165.126L827.718 164.505L826.349 160.314L824.098 164.105L825.817 165.126ZM823.029 169.822L821.309 168.801L821.029 169.273V169.822H823.029ZM823.029 217.667V219.667H825.029V217.667H823.029ZM796.759 217.667H794.759V219.667H796.759V217.667ZM796.759 100.79H823.029V96.7898H796.759V100.79ZM821.029 98.7898V147.368H825.029V98.7898H821.029ZM824.879 148.128L844.838 99.5499L841.138 98.0297L821.179 146.608L824.879 148.128ZM842.988 100.79H868.672V96.7898H842.988V100.79ZM866.821 98.0313L844.807 151.746L848.508 153.263L870.522 99.5482L866.821 98.0313ZM844.772 153.171L867.813 218.333L871.585 217L848.543 151.838L844.772 153.171ZM869.699 215.667H842.988V219.667H869.699V215.667ZM844.889 217.045L827.718 164.505L823.916 165.747L841.087 218.288L844.889 217.045ZM824.098 164.105L821.309 168.801L824.749 170.843L827.537 166.147L824.098 164.105ZM821.029 169.822V217.667H825.029V169.822H821.029ZM823.029 215.667H796.759V219.667H823.029V215.667ZM798.759 217.667V98.7898H794.759V217.667H798.759Z" fill="#1B7023"/>
</svg>
