<svg width="60" height="69" viewBox="0 0 60 69" fill="none" xmlns="http://www.w3.org/2000/svg">
<path d="M22.3148 8.46766C21.3558 7.58027 20.0391 7.06501 18.7366 7.06501C15.6737 7.06501 13.0973 9.55544 13.0973 12.6184C13.0973 15.6384 15.7166 18.1431 18.7223 18.1431C20.0534 18.1431 21.2986 17.6422 22.3148 16.7977V15.8531C21.5133 16.8263 19.9389 17.4991 18.6937 17.4991C17.4198 17.4991 16.1317 16.8693 15.23 16.0105C14.3282 15.1231 13.7844 13.9352 13.7844 12.6756C13.7844 10.0278 16.0028 7.70908 18.6937 7.70908C20.0247 7.70908 21.4847 8.3961 22.3148 9.41231V8.46766ZM26.1543 7.20814H25.4673V18H28.9024V17.3559H26.1543V7.20814ZM33.0982 12.8903C34.8873 12.9189 36.1897 11.9457 36.1897 10.0707C36.1897 9.15468 35.8749 8.29591 35.102 7.75202C34.372 7.22245 33.5132 7.20814 32.6402 7.20814H31.2947V18H31.9818V12.8903H32.3253L35.8462 18H36.6334L33.0982 12.8903ZM31.9818 12.2462V7.85221H32.4255C33.0552 7.85221 33.7852 7.82359 34.3577 8.09553C35.1306 8.43904 35.5027 9.24056 35.5027 10.0421C35.5027 10.6862 35.2594 11.3302 34.7441 11.7453C34.2003 12.2176 33.5275 12.2462 32.8548 12.2462H31.9818ZM40.1155 12.2462V7.20814H39.4285V18H40.1155V13.1336L40.4017 12.8474L45.583 18H46.4847L40.874 12.4037L46.1555 7.20814H45.2395L40.1155 12.2462ZM15.0015 25.2081H14.3145V36H17.7496V35.3559H15.0015V25.2081ZM25.9386 32.4504L27.3842 36H28.0855L23.577 24.8503L19.0542 36H19.7555L21.2011 32.4504H25.9386ZM25.681 31.8063H21.4587L23.577 26.5965L25.681 31.8063ZM31.1431 30.2462V25.2081H30.4561V36H31.1431V31.1336L31.4294 30.8474L36.6106 36H37.5123L31.9017 30.4037L37.1831 25.2081H36.2671L31.1431 30.2462ZM44.9025 25.8522V25.2081H39.7499V36H44.9025V35.3559H40.4369V30.418H44.788V29.7739H40.4369V25.8522H44.9025Z" fill="#1B7023"/>
<rect x="0.391089" y="0.391089" width="59.2178" height="68.2178" stroke="#1B7023" stroke-width="0.782178"/>
<line x1="7" y1="42.5" x2="53" y2="42.5" stroke="#1B7023"/>
<path d="M21.0295 50.4677C20.0705 49.5803 18.7538 49.065 17.4513 49.065C14.3884 49.065 11.812 51.5554 11.812 54.6184C11.812 57.6384 14.4313 60.1431 17.437 60.1431C18.7681 60.1431 20.0133 59.6422 21.0295 58.7977V57.8531C20.228 58.8263 18.6536 59.4991 17.4084 59.4991C16.1345 59.4991 14.8464 58.8693 13.9447 58.0105C13.0429 57.1231 12.4991 55.9352 12.4991 54.6756C12.4991 52.0278 14.7175 49.7091 17.4084 49.7091C18.7395 49.7091 20.1994 50.3961 21.0295 51.4123V50.4677ZM24.869 54.2462V49.2081H24.182V60H24.869V55.1336L25.1553 54.8474L30.3365 60H31.2382L25.6276 54.4037L30.909 49.2081H29.993L24.869 54.2462ZM34.1629 54.7472H35.68C36.3957 54.7472 37.2974 54.7615 37.9557 55.0907C38.6857 55.4485 39.0721 56.2357 39.0721 57.0229C39.0721 57.8245 38.6714 58.4972 38.013 58.9409C37.3546 59.3845 36.5674 59.3559 35.8088 59.3559H34.1629V54.7472ZM36.2382 60C37.1972 60 37.9987 59.8712 38.7573 59.2271C39.43 58.6546 39.7592 57.8674 39.7592 56.9943C39.7592 55.6203 38.8575 54.5468 37.5264 54.2749C38.3851 53.7882 38.7716 53.0583 38.7716 52.0707C38.7716 51.2119 38.5283 50.4104 37.8699 49.8379C37.2258 49.2654 36.4529 49.2081 35.6371 49.2081H33.4758V60H36.2382ZM34.1629 49.8522H35.3508C35.9806 49.8522 36.6533 49.8522 37.1972 50.1957C37.8126 50.5822 38.0846 51.2692 38.0846 51.9705C38.0846 52.7148 37.8985 53.2587 37.283 53.7024C36.6676 54.1461 36.0808 54.1031 35.3508 54.1031H34.1629V49.8522ZM43.4008 54.2462V49.2081H42.7138V60H43.4008V55.1336L43.687 54.8474L48.8683 60H49.77L44.1593 54.4037L49.4408 49.2081H48.5248L43.4008 54.2462Z" fill="#1B7023"/>
</svg>
